<?xml version="1.0" encoding="utf-8"?>
<!-- Generator: Adobe Illustrator 15.0.0, SVG Export Plug-In . SVG Version: 6.00 Build 0)  -->
<!DOCTYPE svg PUBLIC "-//W3C//DTD SVG 1.1//EN" "http://www.w3.org/Graphics/SVG/1.1/DTD/svg11.dtd">
<svg version="1.1" id="Layer_1" xmlns="http://www.w3.org/2000/svg" xmlns:xlink="http://www.w3.org/1999/xlink" x="0px" y="0px"
	 width="361.955px" height="180.978px" viewBox="0 0 361.955 180.978" enable-background="new 0 0 361.955 180.978"
	 xml:space="preserve">
<path display="none" fill-rule="evenodd" clip-rule="evenodd" fill="#FFFFFF" d="M0,0c118.318-1.667,243.637-1.667,361.955,0
	C241.303,0,120.653,0,0,0z"/>
<g id="XMLID_1_">
	<g>
		<path d="M361.96,0c0,60.33,0,120.65,0,180.98c-120.66,0-241.31,0-361.96,0C0,120.65,0,60.33,0,0C120.65,0,241.3,0,361.96,0z
			 M11,90.99c55.87,90.399,287.93,92.6,340.96-2C299.12-4.23,61.43-4.8,11,90.99z"/>
	</g>
	<g>
	</g>
</g>
<path display="none" fill-rule="evenodd" clip-rule="evenodd" fill="#FBFBFB" d="M351.956,88.989
	c-53.023,94.601-285.088,92.406-340.958,2C61.434-4.797,299.115-4.229,351.956,88.989z"/>
</svg>
